<svg width="110" height="159" viewBox="0 0 110 159" fill="#66518d" xmlns="http://www.w3.org/2000/svg">
    <style>
        .card777 {
            font: italic 1.1rem gilroy;
            fill: white;
        }
    </style>
    <path
        d="M104.143 13.11V72.6089H102.953V14.1185H93.0351V5.63061H16.9629V14.1185H7.04473L7.04473 72.6089H5.85455L5.85455 13.11H15.7727V4.62215H94.2253V13.11H104.143Z"
        fill="#66518D"
    ></path>
    <path
        d="M104.143 85.6348V145.89H94.2252V154.378H15.7726V145.89H5.85449L5.85449 85.6348H7.04467L7.04467 144.882H16.9628V153.369H93.035V144.882H102.953V85.6348H104.143Z"
        fill="#66518D"
    ></path>
    <path d="M22.4133 140.175V150.512H10.3132V140.175H22.4133ZM20.2314 148.663V142.024H12.4952V148.663H20.2314Z" fill="#66518D"></path>
    <path d="M99.6756 140.175V150.512H87.5754V140.175H99.6756ZM97.4936 148.663V142.024H89.7574V148.663H97.4936Z" fill="#66518D"></path>
    <path
        d="M12.4948 148.663V159H0.394653L0.394653 148.663H12.4948ZM10.3128 157.151V150.512H2.57665L2.57665 157.151H10.3128Z"
        fill="#66518D"
    ></path>
    <path
        d="M12.6952 79.2479L6.34762 84.7103L0 79.2479L6.34762 73.7854L12.6952 79.2479ZM6.34762 82.0211L9.62061 79.2479L6.34762 76.4746L3.07463 79.2479L6.34762 82.0211Z"
        fill="#66518D"
    ></path>
    <path
        d="M12.4947 -3.05176e-05V10.3367H0.394531L0.394531 -3.05176e-05H12.4947ZM10.3127 8.48782V1.84881H2.57652L2.57652 8.48782H10.3127Z"
        fill="#66518D"
    ></path>
    <path d="M109.497 148.663V159H97.4965V148.663H109.497ZM107.315 157.151V150.512H99.5793V157.151H107.315Z" fill="#66518D"></path>
    <path
        d="M109.99 79.2479L103.642 84.7103L97.2943 79.2479L103.642 73.7854L109.99 79.2479ZM103.642 82.0211L106.915 79.2479L103.642 76.4746L100.369 79.2479L103.642 82.0211Z"
        fill="#66518D"
    ></path>
    <path
        d="M109.498 -2.95639e-05V10.3367H97.4965V-2.95639e-05H109.498ZM107.316 8.48782V1.84881H99.5793V8.48782H107.316Z"
        fill="#66518D"
    ></path>
    <path
        d="M109.494 16.9757V70.0037L103.444 75.2141L97.3941 70.0037V18.8245H87.4759V10.3367H22.4128V18.8245H12.4947L12.4947 70.0037L6.4446 75.2141L0.394531 70.0037L0.394531 16.9757H10.3127V8.48782H20.2308V-1.52588e-05H89.8563V8.48782H99.7744V16.9757H109.494ZM107.312 69.1633V18.7405H99.5761V69.1633L103.444 72.4408L107.312 69.1633ZM97.4932 16.9757V10.3367H89.7571V16.9757H97.4932ZM87.5751 8.48782V1.84882H22.4128V8.48782H87.5751ZM20.2308 16.9757V10.3367H12.4947V16.9757H20.2308ZM10.3127 69.1633L10.3127 18.7405H2.57652L2.57652 69.1633L6.4446 72.4408L10.3127 69.1633Z"
        fill="#66518D"
    ></path>
    <path
        d="M109.494 88.9963V142.024H99.5762V150.512H89.658V159H20.231V150.512H10.3128L10.3128 142.024H0.394653L0.394653 88.9963L6.44473 83.7859L12.4948 88.9963L12.4948 140.175H22.413V148.663H87.6744V140.175H97.5925V88.9963L103.643 83.7859L109.494 88.9963ZM107.312 140.175V89.7526L103.444 86.4752L99.5762 89.7526V140.175H107.312ZM97.4934 148.663V142.024H89.7572V148.663H97.4934ZM87.5752 157.151V150.512H22.413V157.151H87.5752ZM20.231 148.663V142.024H12.4948L12.4948 148.663H20.231ZM10.3128 140.175L10.3128 89.7526L6.44473 86.4752L2.57665 89.7526L2.57665 140.175H10.3128Z"
        fill="#66518D"
    ></path>
    <text x="16" y="85" class="card777">Payspin Casino</text>
</svg>
