<svg xmlns="http://www.w3.org/2000/svg" width="64" height="64" viewBox="0 0 64 64">
    <defs>
        <clipPath id="__lottie_element_452">
            <rect width="64" height="64" x="0" y="0"></rect>
        </clipPath>
        <clipPath id="__lottie_element_454">
            <path d="M0,0 L128,0 L128,128 L0,128z"></path>
        </clipPath>
    </defs>
    <g clip-path="url(#__lottie_element_452)">
        <g
            clip-path="url(#__lottie_element_454)"
            transform="matrix(0.7200000286102295,0,0,0.7200000286102295,-14.080001831054688,-14.080001831054688)"
            opacity="1"
            style="display: block"
        >
            <g transform="matrix(1,0,0,1,29.5,29.5)" opacity="1" style="display: block">
                <g opacity="1" transform="matrix(1,0,0,1,34.215999603271484,34.215999603271484)">
                    <path
                        fill="rgb(1,228,1)"
                        fill-opacity="1"
                        d=" M-21.238000869750977,-34.215999603271484 C-21.238000869750977,-34.215999603271484 -34.215999603271484,-21.238000869750977 -34.215999603271484,-21.238000869750977 C-34.215999603271484,-21.238000869750977 -34.215999603271484,21.238000869750977 -34.215999603271484,21.238000869750977 C-34.215999603271484,21.238000869750977 -21.238000869750977,34.215999603271484 -21.238000869750977,34.215999603271484 C-21.238000869750977,34.215999603271484 21.238000869750977,34.215999603271484 21.238000869750977,34.215999603271484 C21.238000869750977,34.215999603271484 34.215999603271484,21.238000869750977 34.215999603271484,21.238000869750977 C34.215999603271484,21.238000869750977 34.215999603271484,-21.23900032043457 34.215999603271484,-21.23900032043457 C34.215999603271484,-21.23900032043457 21.238000869750977,-34.215999603271484 21.238000869750977,-34.215999603271484 C21.238000869750977,-34.215999603271484 -21.238000869750977,-34.215999603271484 -21.238000869750977,-34.215999603271484z"
                    ></path>
                </g>
                <g opacity="1" transform="matrix(1,0,0,1,34.20600128173828,63.36199951171875)">
                    <path
                        fill="rgb(1,153,2)"
                        fill-opacity="1"
                        d=" M-15.005999565124512,-5.070000171661377 C-15.005999565124512,-5.070000171661377 -21.225000381469727,5.067999839782715 -21.225000381469727,5.067999839782715 C-21.225000381469727,5.067999839782715 -21.22100067138672,5.070000171661377 -21.22100067138672,5.070000171661377 C-21.22100067138672,5.070000171661377 21.225000381469727,5.070000171661377 21.225000381469727,5.070000171661377 C21.225000381469727,5.070000171661377 21.225000381469727,5.033999919891357 21.225000381469727,5.033999919891357 C21.225000381469727,5.033999919891357 15.399999618530273,-5.070000171661377 15.399999618530273,-5.070000171661377 C15.399999618530273,-5.070000171661377 -15.005999565124512,-5.070000171661377 -15.005999565124512,-5.070000171661377z"
                    ></path>
                </g>
                <g opacity="1" transform="matrix(1,0,0,1,34.215999603271484,34.215999603271484)">
                    <path
                        fill="rgb(8,252,2)"
                        fill-opacity="1"
                        d=" M14.942999839782715,24.07699966430664 C14.942999839782715,24.07699966430664 24.07699966430664,14.942999839782715 24.07699966430664,14.942999839782715 C24.07699966430664,14.942999839782715 24.07699966430664,-14.944999694824219 24.07699966430664,-14.944999694824219 C24.07699966430664,-14.944999694824219 14.942999839782715,-24.07699966430664 14.942999839782715,-24.07699966430664 C14.942999839782715,-24.07699966430664 -14.944999694824219,-24.07699966430664 -14.944999694824219,-24.07699966430664 C-14.944999694824219,-24.07699966430664 -24.07699966430664,-14.944999694824219 -24.07699966430664,-14.944999694824219 C-24.07699966430664,-14.944999694824219 -24.07699966430664,14.942999839782715 -24.07699966430664,14.942999839782715 C-24.07699966430664,14.942999839782715 -14.944999694824219,24.07699966430664 -14.944999694824219,24.07699966430664 C-14.944999694824219,24.07699966430664 14.942999839782715,24.07699966430664 14.942999839782715,24.07699966430664z"
                    ></path>
                </g>
                <g opacity="1" transform="matrix(1,0,0,1,9.63599967956543,58.79600143432617)">
                    <path
                        fill="rgb(3,189,2)"
                        fill-opacity="1"
                        d=" M-9.63599967956543,-3.3420000076293945 C-9.63599967956543,-3.3420000076293945 3.3420000076293945,9.63599967956543 3.3420000076293945,9.63599967956543 C3.3420000076293945,9.63599967956543 9.63599967956543,-0.503000020980835 9.63599967956543,-0.503000020980835 C9.63599967956543,-0.503000020980835 0.503000020980835,-9.63599967956543 0.503000020980835,-9.63599967956543 C0.503000020980835,-9.63599967956543 -9.63599967956543,-3.3420000076293945 -9.63599967956543,-3.3420000076293945z"
                    ></path>
                </g>
                <g opacity="1" transform="matrix(1,0,0,1,9.63599967956543,9.63599967956543)">
                    <path
                        fill="rgb(0,212,3)"
                        fill-opacity="1"
                        d=" M3.3420000076293945,-9.63599967956543 C3.3420000076293945,-9.63599967956543 -9.63599967956543,3.3420000076293945 -9.63599967956543,3.3420000076293945 C-9.63599967956543,3.3420000076293945 0.503000020980835,9.63599967956543 0.503000020980835,9.63599967956543 C0.503000020980835,9.63599967956543 9.63599967956543,0.503000020980835 9.63599967956543,0.503000020980835 C9.63599967956543,0.503000020980835 3.3420000076293945,-9.63599967956543 3.3420000076293945,-9.63599967956543z"
                    ></path>
                </g>
                <g opacity="1" transform="matrix(1,0,0,1,58.79600143432617,58.79600143432617)">
                    <path
                        fill="rgb(3,189,2)"
                        fill-opacity="1"
                        d=" M-9.63599967956543,-0.5040000081062317 C-9.63599967956543,-0.5040000081062317 -3.3420000076293945,9.635000228881836 -3.3420000076293945,9.635000228881836 C-3.3420000076293945,9.635000228881836 9.63599967956543,-3.3420000076293945 9.63599967956543,-3.3420000076293945 C9.63599967956543,-3.3420000076293945 9.63599967956543,-3.3420000076293945 9.63599967956543,-3.3420000076293945 C9.63599967956543,-3.3420000076293945 -0.5040000081062317,-9.635000228881836 -0.5040000081062317,-9.635000228881836 C-0.5040000081062317,-9.635000228881836 -9.63599967956543,-0.5040000081062317 -9.63599967956543,-0.5040000081062317z"
                    ></path>
                </g>
                <g opacity="1" transform="matrix(1,0,0,1,58.79499816894531,9.63599967956543)">
                    <path
                        fill="rgb(62,252,111)"
                        fill-opacity="1"
                        d=" M-3.3420000076293945,-9.63599967956543 C-3.3420000076293945,-9.63599967956543 -9.63599967956543,0.503000020980835 -9.63599967956543,0.503000020980835 C-9.63599967956543,0.503000020980835 -0.503000020980835,9.63599967956543 -0.503000020980835,9.63599967956543 C-0.503000020980835,9.63599967956543 9.63599967956543,3.3429999351501465 9.63599967956543,3.3429999351501465 C9.63599967956543,3.3429999351501465 9.63599967956543,3.3410000801086426 9.63599967956543,3.3410000801086426 C9.63599967956543,3.3410000801086426 -3.3420000076293945,-9.63599967956543 -3.3420000076293945,-9.63599967956543z"
                    ></path>
                </g>
            </g>
            <g transform="matrix(1,0,0,1,64.19999694824219,64)" opacity="1" style="display: block">
                <g opacity="1" transform="matrix(1,0,0,1,0,0)">
                    <path
                        fill="rgb(63,253,112)"
                        fill-opacity="1"
                        d=" M20.886999130249023,-34.09199905395508 C20.886999130249023,-34.09199905395508 21.429000854492188,-33.54999923706055 21.367000579833984,-33.44200134277344 C17.950000762939453,-27.475000381469727 15.836999893188477,-23.825000762939453 15.836999893188477,-23.825000762939453 C15.836999893188477,-23.825000762939453 15.687999725341797,-23.575000762939453 15.687999725341797,-23.575000762939453 C15.687999725341797,-23.575000762939453 20.886999130249023,-34.09199905395508 20.886999130249023,-34.09199905395508z"
                    ></path>
                </g>
            </g>
            <g transform="matrix(1,0,0,1,64.19999694824219,64)" opacity="1" style="display: none">
                <g opacity="1" transform="matrix(1,0,0,1,0,0)">
                    <path
                        fill="rgb(160,253,157)"
                        fill-opacity="1"
                        d=" M20.496000289916992,-34.020999908447266 C20.496000289916992,-34.020999908447266 14.199999809265137,-24.299999237060547 14.199999809265137,-24.299999237060547 C14.199999809265137,-24.299999237060547 14.300000190734863,-24.267000198364258 14.300000190734863,-24.267000198364258 C14.300000190734863,-24.267000198364258 20.433000564575195,-33.92499923706055 20.433000564575195,-33.92499923706055 C20.433000564575195,-33.92499923706055 20.496000289916992,-34.020999908447266 20.496000289916992,-34.020999908447266z"
                    ></path>
                </g>
            </g>
            <g transform="matrix(1,0,0,1,64.19999694824219,64)" opacity="1" style="display: none">
                <g opacity="1" transform="matrix(1,0,0,1,0,0)">
                    <path
                        fill="rgb(31,255,25)"
                        fill-opacity="1"
                        d=" M29.419593811035156,-18.924333572387695 C29.419593811035156,-18.924333572387695 29.831682205200195,18.417455673217773 29.831682205200195,18.417455673217773 C29.831682205200195,18.417455673217773 33.74399185180664,21.022005081176758 33.74399185180664,21.022005081176758 C33.74399185180664,21.022005081176758 33.77098083496094,-21.97395133972168 33.77098083496094,-21.97395133972168 C33.77098083496094,-21.97395133972168 29.419593811035156,-18.924333572387695 29.419593811035156,-18.924333572387695z"
                    ></path>
                </g>
            </g>
            <g transform="matrix(1,0,0,1,64,64)" opacity="1" style="display: none">
                <g opacity="1" transform="matrix(1,0,0,1,0,0)">
                    <path
                        fill="rgb(161,253,158)"
                        fill-opacity="1"
                        d=" M-24.499895095825195,8.125052452087402 C-24.499895095825195,8.125052452087402 -24.10700035095215,14.652000427246094 -24.10700035095215,14.652000427246094 C-24.10700035095215,14.652000427246094 -14.562000274658203,24.437999725341797 -14.562000274658203,24.437999725341797 C-14.562000274658203,24.437999725341797 -7.727835178375244,24.17510414123535 -7.727835178375244,24.17510414123535 C-7.727835178375244,24.17510414123535 -13.188944816589355,23.999895095825195 -13.188944816589355,23.999895095825195 C-13.188944816589355,23.999895095825195 -24.3118953704834,7.314519882202148 -24.3118953704834,7.314519882202148 C-24.3118953704834,7.314519882202148 -24.437999725341797,-1.0959999561309814 -24.437999725341797,-1.0959999561309814 C-24.437999725341797,-1.0959999561309814 -24.499895095825195,8.125052452087402 -24.499895095825195,8.125052452087402z"
                    ></path>
                </g>
            </g>
            <g
                transform="matrix(-0.7123915553092957,-0.040981046855449677,0.040981046855449677,-0.7123915553092957,93.45404052734375,59.18682098388672)"
                opacity="0.09502730902973994"
                style="display: none"
            >
                <g opacity="1" transform="matrix(1,0,0,1,0,0)">
                    <path
                        fill="rgb(255,255,255)"
                        fill-opacity="1"
                        d=" M59.625,-53.375 C59.625,-53.375 59.99300003051758,-47.981998443603516 61.61399841308594,-46.097999572753906 C63.07600021362305,-44.39899826049805 68.875,-44.25 68.875,-44.25 C68.875,-44.25 63.46099853515625,-43.130001068115234 61.941001892089844,-41.69499969482422 C60.46099853515625,-40.297000885009766 60.25,-34.75 60.25,-34.75 C60.25,-34.75 60.01900100708008,-40.20800018310547 58.090999603271484,-41.624000549316406 C55.93600082397461,-43.20800018310547 50.625,-43.75 50.625,-43.75 C50.625,-43.75 55.30400085449219,-43.499000549316406 57.63399887084961,-45.48899841308594 C59.78300094604492,-47.32500076293945 59.625,-53.375 59.625,-53.375z"
                    ></path>
                </g>
            </g>
        </g>
    </g>
</svg>
