<svg width="20" height="18" viewBox="0 0 20 18" fill="none" xmlns="http://www.w3.org/2000/svg">
<path d="M7.40532 2.31195H12.4978C12.5446 2.31195 12.5727 2.31195 12.6101 2.29333C12.6476 2.34919 12.6195 2.40505 12.6101 2.4516L12.1421 3.66189L11.5242 5.36559C11.489 5.43464 11.4729 5.51175 11.4774 5.58903L11.4306 6.39899L11.4025 6.83656C11.3495 7.75823 11.2965 8.67991 11.2434 9.60159L11.2153 9.78779V9.90882L11.1404 10.9422C11.103 11.2774 11.1311 11.5939 11.1217 11.9291C11.0936 12.5808 11.103 13.2324 11.103 13.8748L11.0936 14.0983C11.0936 13.8562 11.1592 13.6328 11.206 13.4L11.4587 12.1153C11.4774 12.0501 11.4962 11.9849 11.5898 11.957H11.6179L13.4152 11.4263C13.462 11.4077 13.5182 11.3891 13.565 11.3891C13.6118 11.3798 13.6399 11.3518 13.6773 11.3518C13.7335 11.3518 13.7616 11.3891 13.7616 11.4449V11.8173C13.7335 12.0408 13.7241 12.2735 13.7241 12.5063C13.7241 12.6366 13.696 12.7669 13.696 12.8694C14.239 11.8173 14.8007 10.756 15.3436 9.67607V9.63883L14.2483 8.00029C14.2203 7.95374 14.1735 7.90719 14.1828 7.83271C14.2109 7.76754 14.2671 7.79547 14.3139 7.80478L15.3436 8.1027L17.2814 8.66129L18.1239 8.91266C18.18 8.93128 18.2456 8.93128 18.2643 9.00576L18.6387 10.1881C18.957 11.147 19.2753 12.0966 19.5749 13.0556C19.5936 13.0928 19.6029 13.13 19.5749 13.1766H15.0253C14.6134 13.2045 14.1828 13.1859 13.7709 13.1952C13.7335 13.1952 13.696 13.1952 13.6586 13.2138C13.5088 13.3069 13.3778 13.4186 13.2467 13.521L11.5055 14.871C11.4868 14.8803 11.4587 14.8896 11.4306 14.871C11.3557 14.7965 11.2434 14.7406 11.1592 14.6848C11.1404 14.6662 11.1217 14.6569 11.0936 14.6662C10.9813 14.6941 10.869 14.6848 10.7566 14.6848H9.08097C9.02481 14.6848 8.96864 14.6848 8.91247 14.6662C8.87503 14.6475 8.84695 14.6662 8.81886 14.6848L8.53803 14.8803H8.49122L7.63935 14.2193L6.4224 13.2697C6.39914 13.2541 6.37397 13.2416 6.34751 13.2324C6.31007 13.2045 6.2539 13.2045 6.20709 13.2045C5.505 13.2231 4.80292 13.1766 4.09147 13.1859H0.552942C0.515497 13.1859 0.45933 13.1859 0.431246 13.158C0.384441 13.1207 0.421885 13.0742 0.431246 13.0462L1.70437 9.08955C1.71491 9.06274 1.72123 9.03448 1.72309 9.00576C1.72309 8.9499 1.77926 8.94059 1.8167 8.93128C2.35029 8.7637 2.87451 8.61474 3.4081 8.46578L5.59862 7.8234C5.65478 7.81409 5.72031 7.76754 5.78584 7.8234C5.80456 7.86064 5.78584 7.89788 5.76712 7.93512L5.72031 8.00029C5.34586 8.54026 5.00886 9.08955 4.64378 9.62021C4.62505 9.63883 4.62505 9.65745 4.63442 9.68538L6.27262 12.888L6.2539 12.6645L6.22582 11.7894L6.20709 11.4543C6.20709 11.4077 6.22582 11.3612 6.3007 11.3612C6.33815 11.3612 6.37559 11.3891 6.4224 11.3891L7.94827 11.836L8.34144 11.9477C8.38825 11.9384 8.38825 11.8918 8.39761 11.8546L8.74397 9.96467L8.75333 9.7971L8.67844 8.58681L8.62228 7.50687C8.59419 7.15309 8.56611 6.80863 8.55675 6.45485C8.53803 6.15693 8.50994 5.86833 8.50994 5.57972C8.50364 5.49969 8.48469 5.42114 8.45378 5.34698C8.28527 4.85355 8.09805 4.37875 7.91083 3.90394L7.37724 2.46091C7.36788 2.40505 7.33043 2.34919 7.39596 2.31195H7.40532Z" fill="#F18521"/>
<path d="M18.2648 8.9965C18.2367 8.94995 18.1899 8.94995 18.1525 8.94064L15.0258 8.01896L14.2956 7.80484C14.2582 7.79553 14.202 7.75829 14.202 7.82346C14.1459 7.8607 14.1271 7.82346 14.0991 7.79553L12.6013 6.53869L11.4967 5.60771C11.4779 5.57978 11.4498 5.57047 11.4405 5.53323C11.4405 5.46806 11.4686 5.40289 11.4967 5.32841C11.5278 5.28541 11.5658 5.24769 11.609 5.21669L14.0148 3.44782L16.4487 1.66032L18.5082 0.1335C18.555 0.09626 18.6205 0.0497106 18.6954 0.021781C18.7422 -0.0154585 18.7796 -0.00614861 18.7984 0.0590205L19.7345 2.85198C19.7532 2.89853 19.7532 2.93577 19.7439 2.97301L19.1354 5.87769C19.1167 5.96148 19.1167 6.01734 19.2009 6.05458C19.2945 6.11044 19.3788 6.19423 19.463 6.24078C19.5192 6.28733 19.5192 6.31526 19.463 6.36181C19.2852 6.48284 19.1167 6.62248 18.9294 6.76213L19.2852 7.04143C19.3975 7.12522 19.3975 7.12522 19.2945 7.20901L18.8358 7.62795C18.7984 7.66519 18.7984 7.68381 18.8452 7.72105C18.9201 7.75829 18.995 7.81415 19.0605 7.87001C19.1728 7.94449 19.1728 7.94449 19.0792 8.0562L18.2648 8.98719V8.9965ZM8.47299 5.32841C8.51044 5.38427 8.5198 5.45875 8.53852 5.52392C8.5198 5.57978 8.48235 5.61702 8.44491 5.64495L7.03137 6.83661L5.88931 7.79553C5.87058 7.81415 5.82378 7.88863 5.77697 7.81415C5.74889 7.77691 5.71144 7.80484 5.68336 7.81415L3.12776 8.55894L1.81719 8.93133C1.7811 8.94029 1.74851 8.95974 1.72358 8.98719L0.881076 8.00966C0.843632 7.97242 0.862354 7.93518 0.899799 7.91656L1.16191 7.73036C1.20872 7.70243 1.20872 7.68381 1.16191 7.63726L0.684492 7.20901C0.618964 7.15315 0.618964 7.11591 0.684492 7.07867C0.824909 6.98557 0.937244 6.89247 1.0683 6.78075L0.544074 6.38043C0.478546 6.33388 0.478546 6.30595 0.544074 6.25009C0.637686 6.19423 0.731298 6.11044 0.824909 6.04527C0.881077 6.00803 0.881076 5.97079 0.881076 5.91493L0.572158 4.46259L0.253878 2.99163C0.244516 2.93577 0.253878 2.88922 0.263239 2.84267L1.19 0.0869501C1.21808 0.0124711 1.24616 0.00316122 1.30233 0.0497106C1.61125 0.235908 1.89208 0.468655 2.18228 0.682782C4.26153 2.19665 6.33349 3.72038 8.3981 5.25393C8.42619 5.28186 8.45427 5.30048 8.46363 5.32841H8.47299Z" fill="#773E16"/>
<path d="M16.027 13.149H19.4719C19.5093 13.149 19.5468 13.1304 19.5655 13.177L19.2659 14.229L18.3766 17.2175C18.3298 17.3478 18.3298 17.3478 18.2081 17.3106L14.0705 16.1841L14.0143 16.1748V16.1189C14.1828 15.8396 14.3794 15.5789 14.5573 15.2996L15.924 13.2608C15.9614 13.2142 15.9802 13.1677 16.0176 13.149H16.027ZM0.421875 13.149H3.96976C4.00569 13.176 4.03458 13.2111 4.05401 13.2515C4.51271 13.9311 4.96205 14.62 5.43011 15.2996L5.97305 16.1096L5.96369 16.1654L2.8277 17.022L1.73244 17.3106C1.66691 17.3292 1.63883 17.3292 1.61074 17.2547L0.421875 13.177V13.149ZM8.47249 5.32875L7.53637 4.64913L3.53915 1.70721L1.32991 0.0686686L1.30183 0.0500488L2.28475 0.403824L7.33979 2.28442L7.40531 2.31235C7.37723 2.3589 7.38659 2.40545 7.40531 2.452L8.2759 4.8074C8.34143 4.97497 8.41632 5.15186 8.46313 5.32875H8.47249Z" fill="#E5771B"/>
<path d="M18.6859 0.0406494C18.4238 0.254777 18.1336 0.450284 17.8621 0.664411L14.1551 3.40152L11.5059 5.34728L11.9926 4.02528L12.4139 2.90809L12.5637 2.49846C12.5918 2.43329 12.6105 2.36812 12.6105 2.31226L14.0615 1.76298C15.5984 1.18525 17.1368 0.611136 18.6765 0.0406494H18.6859Z" fill="#E2761A"/>
<path d="M5.96484 16.1558V16.0999C5.96484 16.044 6.00229 16.0534 6.05846 16.0627L8.23025 17.0868C8.34258 17.1426 8.34258 17.1426 8.34258 17.0309C8.34258 16.9192 8.34258 16.8075 8.32386 16.6957C8.3145 16.6399 8.29578 16.584 8.35195 16.5375C8.39875 16.5282 8.44556 16.5002 8.483 16.463C8.53917 16.3978 8.61406 16.3699 8.69831 16.3699H11.3101C11.385 16.3699 11.4599 16.3885 11.5254 16.4444C11.5628 16.4816 11.6003 16.5188 11.6564 16.5375C11.7032 16.5654 11.6845 16.6119 11.6939 16.6492C11.7126 16.8075 11.6658 16.9564 11.6752 17.1333L13.9593 16.0627C13.9967 16.044 14.0342 16.0347 14.0529 16.0999L14.0435 16.1558C13.978 16.1651 13.9406 16.2116 13.9031 16.2489C13.173 16.8912 12.3304 17.4033 11.5441 17.9619C11.5067 17.9902 11.4599 18.0035 11.4131 17.9991H8.6047C8.56725 17.9991 8.52045 17.9991 8.47364 17.9619C7.93069 17.5802 7.37838 17.2171 6.82607 16.8168C6.56396 16.6306 6.32057 16.4164 6.05846 16.2023L5.96484 16.1558Z" fill="#C1AD9F"/>
<path d="M5.76666 7.82343C5.81347 7.86067 5.83219 7.81412 5.86027 7.7955L6.64661 7.1345L8.16312 5.85905L8.53757 5.5332L8.57501 6.41764C8.6031 6.71556 8.62182 7.03209 8.63118 7.33001C8.6499 7.64655 8.67799 7.95377 8.68735 8.27031L8.74351 9.19198C8.75287 9.38749 8.78096 9.59231 8.78096 9.78782C8.70607 9.83437 8.62182 9.82506 8.55629 9.81575C8.36907 9.78782 8.17248 9.79713 7.96654 9.77851L6.89936 9.73196C6.56236 9.71334 6.216 9.71334 5.86963 9.68541L5.36413 9.65748C5.15818 9.65748 4.95224 9.62955 4.74629 9.63886C4.69948 9.63886 4.65268 9.63886 4.61523 9.59231L5.73858 7.91653C5.7573 7.8886 5.76666 7.86067 5.76666 7.82343ZM11.4395 5.55182L12.151 6.14765L13.6956 7.45104L14.1168 7.7955C14.1356 7.81412 14.1543 7.84205 14.1917 7.84205C14.3509 8.12135 14.5474 8.38203 14.7253 8.65201L15.3806 9.62955C15.3499 9.64912 15.314 9.65887 15.2776 9.65748C14.9032 9.65748 14.5474 9.69472 14.1824 9.70403C13.7424 9.71334 13.3118 9.74127 12.8905 9.75989C12.4693 9.7692 12.048 9.79713 11.6361 9.81575C11.5331 9.81575 11.4302 9.83437 11.3178 9.82506C11.271 9.82506 11.2336 9.82506 11.2055 9.79713C11.2242 9.53645 11.2242 9.26646 11.2617 8.99648L11.271 8.62408C11.2991 8.34479 11.2991 8.06549 11.3178 7.78619L11.374 6.78073C11.374 6.57591 11.4021 6.37109 11.4114 6.15696C11.4114 5.95215 11.4302 5.75664 11.4395 5.55182Z" fill="#E5771B"/>
<path d="M11.6558 16.5561C11.5996 16.584 11.5716 16.5561 11.5435 16.5282C11.4592 16.4165 11.3563 16.4071 11.2252 16.4071H8.75384C8.63215 16.4071 8.53854 16.4165 8.46365 16.5282C8.43556 16.5561 8.40748 16.5933 8.35131 16.5561C8.31387 16.5282 8.32323 16.5002 8.33259 16.463L8.51045 14.9641C8.51045 14.9269 8.51045 14.8989 8.53854 14.871C8.63215 14.7593 8.77257 14.7034 8.8849 14.6196L8.91298 14.6103C8.98787 14.7034 9.10021 14.6476 9.19382 14.6476H10.9912C11.0286 14.6476 11.0754 14.6662 11.1035 14.629C11.1035 14.6103 11.1129 14.601 11.1316 14.6196C11.2439 14.7127 11.3843 14.7593 11.4779 14.8803C11.506 14.9083 11.506 14.9362 11.5154 14.9734L11.7026 16.4537C11.6839 16.4816 11.6933 16.5282 11.6652 16.5561H11.6558Z" fill="#161617"/>
<path d="M4.62493 9.60168L4.75599 9.6203L5.87933 9.65754L6.72184 9.70409L7.5737 9.74133L8.41621 9.77857L8.78129 9.79719C8.78129 10.0579 8.70641 10.3092 8.6596 10.5606L8.41621 11.864C8.41621 11.9105 8.42557 11.985 8.34132 11.9757C8.28515 11.9292 8.26643 11.864 8.24771 11.8081L7.80773 10.8958C7.77965 10.8306 7.73284 10.8027 7.66731 10.8492L6.75928 11.2588L6.39419 11.4171L6.28186 11.3799C6.2455 11.3582 6.21371 11.3298 6.18825 11.2961C5.86997 10.9795 5.53297 10.6723 5.23341 10.3465C5.0181 10.1137 4.78407 9.91822 4.57812 9.66685C4.59685 9.63892 4.59685 9.61099 4.62493 9.61099V9.60168Z" fill="#CE6118"/>
<path d="M11.2069 9.78785L12.3302 9.75061L13.1727 9.71337L14.0152 9.66682C14.2961 9.66682 14.5769 9.6482 14.8484 9.62958C15.0263 9.62958 15.1948 9.62958 15.382 9.61096V9.65751L15.2322 9.82509C14.8016 10.272 14.3616 10.7188 13.9216 11.1471L13.8187 11.2681C13.7864 11.3125 13.7403 11.3452 13.6876 11.3612L13.594 11.3891C13.2383 11.2402 12.8919 11.0726 12.5549 10.9237C12.4707 10.8864 12.3864 10.8585 12.3115 10.8119C12.246 10.7747 12.2179 10.7933 12.1805 10.8585L11.7124 11.836C11.6981 11.8771 11.6758 11.9151 11.6469 11.9477H11.6188C11.5533 11.9664 11.5533 11.9105 11.5439 11.8826L11.4503 11.3612L11.2256 10.1044C11.2069 10.0392 11.2256 9.95543 11.2069 9.88095V9.78785ZM14.034 16.1093C14.0152 16.0813 13.9965 16.072 13.9591 16.0906C13.9404 16.0906 13.931 16.072 13.9216 16.0534C13.8748 15.8113 13.8561 15.5786 13.828 15.3272L13.6221 13.6328L13.5846 13.307C13.5846 13.2697 13.5846 13.2325 13.6127 13.2046C13.6279 13.1911 13.6457 13.1808 13.665 13.1744C13.6843 13.168 13.7048 13.1656 13.725 13.1673L16.0092 13.1487H16.0279C15.8126 13.4559 15.616 13.7725 15.4101 14.0797L14.5488 15.3552L14.034 16.1093ZM6.03016 16.0813C5.99272 16.0627 5.97399 16.0813 5.94591 16.0999L5.57146 15.5414L4.00815 13.2139C3.99318 13.1937 3.98062 13.1718 3.9707 13.1487C4.31707 13.1487 4.67279 13.1301 5.03788 13.1487C5.44041 13.1766 5.8523 13.1673 6.25483 13.1766C6.311 13.1766 6.34844 13.1766 6.37653 13.2325C6.40461 13.2604 6.40461 13.2977 6.39525 13.3256L6.11441 15.7182C6.09569 15.83 6.09569 15.9417 6.05825 16.0534L6.03016 16.0813Z" fill="#CD6118"/>
<path d="M13.6123 13.2046L13.6778 13.7911L13.734 14.3311L13.8088 14.9083L13.8744 15.4297L13.9493 16.0627C13.9025 16.0813 13.8744 16.0534 13.8463 16.0348L11.9647 15.1317L11.5715 14.9455C11.5434 14.9269 11.4966 14.9176 11.4873 14.8711C11.5622 14.778 11.6745 14.7221 11.7681 14.6476L12.9663 13.7166C13.1816 13.5304 13.3969 13.3629 13.6123 13.2046ZM6.03906 16.0534C6.07651 15.681 6.13267 15.3086 6.16076 14.9362L6.27309 14.0797L6.35734 13.3815L6.37606 13.2232C6.51648 13.2977 6.62882 13.4094 6.75051 13.5025L7.5743 14.1542L8.48233 14.8524C8.48233 14.899 8.44489 14.9083 8.4168 14.9083L7.43388 15.3924C7.00326 15.5972 6.57265 15.802 6.1514 16.0255C6.10459 16.0348 6.07651 16.072 6.03906 16.0534Z" fill="#E5771B"/>
<path d="M6.03825 16.0534L7.56413 15.3086L8.48152 14.8524L8.51897 14.871L8.44408 15.6624L8.35046 16.5561C8.3411 16.7423 8.36919 16.9192 8.35983 17.0961C8.35983 17.1613 8.35983 17.1799 8.28494 17.1426L7.86368 16.9564C7.44243 16.7516 7.02118 16.5468 6.5812 16.3513L6.01953 16.0906L6.03825 16.0534ZM11.4958 14.8524L12.6004 15.4017L13.9484 16.0534V16.0813L11.6362 17.1799C11.6269 16.9658 11.6643 16.7516 11.655 16.5561L11.5707 15.8113L11.4584 14.8803C11.4584 14.8617 11.4865 14.8617 11.4958 14.8524Z" fill="#D8C2B4"/>
<path d="M4.59766 9.65747C4.81296 9.85298 5.00955 10.0485 5.19677 10.2719C5.29038 10.3836 5.41208 10.486 5.52441 10.5885L6.30139 11.3705C6.25458 11.3705 6.23586 11.3891 6.24522 11.4357C6.26395 11.7056 6.24522 11.9756 6.27331 12.2456V12.3666L6.28267 12.9252L6.07672 12.5435L5.42144 11.2774L4.64446 9.76919C4.6351 9.72264 4.59766 9.70402 4.59766 9.65747ZM13.6874 11.3612C13.781 11.296 13.8371 11.2122 13.9027 11.1284L14.7545 10.2905L15.3162 9.73195C15.3393 9.70535 15.3644 9.68046 15.3911 9.65747L14.9979 10.4209C14.6984 10.9795 14.4175 11.5567 14.118 12.1246C13.9776 12.3853 13.8559 12.6553 13.6874 12.9252L13.7061 12.618C13.7342 12.227 13.7342 11.836 13.7435 11.445C13.7435 11.4077 13.7529 11.3612 13.6874 11.3612Z" fill="#E5751E"/>
<path d="M11.6376 11.957C11.6657 11.8453 11.7312 11.7429 11.778 11.6405L12.1618 10.8305C12.1899 10.7747 12.2086 10.7561 12.2742 10.7747L13.5286 11.3519C13.5566 11.3612 13.5754 11.3705 13.5847 11.3891L12.115 11.8174L11.6376 11.957ZM6.41406 11.3984C6.41406 11.3612 6.45151 11.3612 6.47959 11.3519L7.71527 10.7933C7.75271 10.7747 7.78079 10.7468 7.80888 10.8212L8.34247 11.9384V11.9663L7.79952 11.8081L6.41406 11.3984Z" fill="#243547"/>
<path d="M11.2057 9.89954C11.2618 10.0485 11.2618 10.2068 11.2899 10.3557L11.4865 11.445L11.5801 11.9105C11.5801 11.9384 11.5801 11.957 11.6176 11.9663C11.5427 11.9849 11.5146 12.0222 11.4959 12.106C11.3742 12.7763 11.2338 13.4466 11.0933 14.1262H11.084C11.0933 12.7111 11.0559 11.3053 11.2057 9.89954Z" fill="#E5751E"/>
</svg>
